<?xml version="1.0" encoding="utf-8"?>
<svg version="1.1" id="Layer_1" xmlns="http://www.w3.org/2000/svg" xmlns:xlink="http://www.w3.org/1999/xlink" x="0px" y="0px"
	 viewBox="0 0 32 32" enable-background="new 0 0 32 32" xml:space="preserve">
<path d="M31.4,9.2c-0.4-1.5-1.6-2.7-3.1-3.1C25.4,5,16,5,16,5s-9.4,0-12.3,1.1c-1.5,0.4-2.7,1.6-3.1,3.1C0,12,0,16,0,16
	s0,4,0.6,6.8c0.4,1.5,1.6,2.7,3.1,3.1C6.6,27,16,27,16,27s9.4,0,12.3-1.1c1.5-0.4,2.7-1.6,3.1-3.1C32,20,32,16,32,16
	S32,12,31.4,9.2z M12.8,20V12l8.5,4L12.8,20z"/>
</svg>
